<?xml version="1.0" standalone="no"?>
<!DOCTYPE svg PUBLIC "-//W3C//DTD SVG 20010904//EN"
 "http://www.w3.org/TR/2001/REC-SVG-20010904/DTD/svg10.dtd">
<svg version="1.0" xmlns="http://www.w3.org/2000/svg"
 width="500.000000pt" height="500.000000pt" viewBox="0 0 500.000000 500.000000"
 preserveAspectRatio="xMidYMid meet">

<g transform="translate(0.000000,500.000000) scale(0.100000,-0.100000)"
fill="#000000" stroke="none">
<path d="M1140 2739 l0 -223 50 49 c56 55 63 85 28 122 -20 21 -21 27 -10 56
7 19 12 57 12 85 l0 52 180 0 c228 0 265 -13 312 -104 30 -59 26 -137 -9 -195
-43 -69 -94 -93 -209 -99 l-94 -5 0 42 0 41 85 0 c57 0 96 5 115 15 79 41 79
179 0 220 -22 11 -64 15 -171 15 l-142 0 7 -60 c6 -49 4 -61 -8 -66 -11 -4
-16 -19 -16 -43 0 -32 -8 -45 -65 -101 -58 -58 -65 -68 -65 -105 l0 -40 90 90
c75 75 90 95 90 121 0 64 71 112 151 101 29 -4 45 0 65 16 37 29 78 14 82 -31
3 -26 -1 -34 -23 -44 -22 -10 -30 -8 -55 10 -20 15 -44 22 -75 22 -74 0 -114
-30 -115 -85 0 -25 -19 -49 -105 -135 -91 -90 -105 -109 -105 -137 0 -18 3
-33 8 -33 4 0 48 41 97 90 l90 90 130 0 c105 0 138 -4 170 -19 108 -50 154
-174 104 -278 -39 -80 -114 -123 -216 -123 -40 0 -54 5 -73 24 -40 43 -22 56
75 56 82 0 86 1 121 33 68 62 55 170 -25 215 -35 20 -54 22 -179 22 l-139 0
-82 -82 -81 -83 2 -130 3 -130 143 -3 c85 -2 142 1 142 7 0 5 -28 34 -61 65
-53 47 -60 59 -55 80 9 35 36 48 67 33 27 -14 37 -51 19 -73 -10 -11 -5 -23
24 -59 43 -52 66 -60 144 -51 110 13 191 67 240 161 21 40 26 64 26 125 1 83
-21 138 -76 197 l-30 31 26 34 c39 52 56 102 55 165 -1 104 -51 189 -140 238
l-54 30 -237 3 -238 3 0 -222z m379 -383 c7 -8 11 -27 9 -43 -2 -23 -8 -29
-34 -31 -19 -2 -36 3 -44 12 -9 12 -31 16 -77 16 -57 0 -64 2 -53 15 8 10 30
15 65 15 35 0 57 5 65 15 16 19 54 19 69 1z m99 -88 c7 -7 12 -21 12 -33 0
-12 -5 -26 -12 -33 -17 -17 -63 -15 -78 3 -10 12 -40 15 -151 15 l-139 0 0
-60 c0 -47 4 -64 20 -80 25 -25 25 -42 0 -65 -43 -39 -106 20 -67 63 11 12 17
42 19 92 l3 75 155 3 c124 2 156 5 163 17 10 18 58 20 75 3z"/>
<path d="M1472 2324 c4 -21 22 -23 26 -1 2 10 -3 17 -13 17 -10 0 -15 -6 -13
-16z"/>
<path d="M1571 2246 c-12 -14 -5 -26 16 -26 15 0 18 26 4 34 -5 3 -14 0 -20
-8z"/>
<path d="M1220 2045 c0 -8 9 -15 20 -15 11 0 20 7 20 15 0 8 -9 15 -20 15 -11
0 -20 -7 -20 -15z"/>
<path d="M1232 2718 c7 -19 38 -22 38 -4 0 10 -9 16 -21 16 -12 0 -19 -5 -17
-12z"/>
<path d="M1554 2699 c-3 -6 0 -15 7 -20 22 -14 29 -11 29 11 0 21 -24 27 -36
9z"/>
<path d="M1340 2115 c0 -8 9 -15 20 -15 11 0 20 7 20 15 0 8 -9 15 -20 15 -11
0 -20 -7 -20 -15z"/>
</g>
</svg>
